<svg xmlns="http://www.w3.org/2000/svg" viewBox="35 210 435 75" width="100%" height="100%">
  <!-- Icon M and Letters in All White (#FFFFFF) -->
  <g fill="#FFFFFF" fill-rule="evenodd">
    <!-- e -->
    <path d="M159.28 280.96 c-11.28 -3.03 -18.16 -12.40 -18.16 -24.66 0 -7.81 2.29 -13.82 7.13 -18.65 4.79 -4.83 10.01 -6.64 19.29 -6.69 13.28 -0.05 23.39 10.79 23.39 25 l0 3.81 -17.58 0 -17.58 0 0.29 1.37 c0.88 3.61 3.08 6.35 6.15 7.67 3.66 1.51 7.23 0.68 10.11 -2.39 l1.71 -1.76 7.71 0 c6.10 0 7.71 0.15 7.71 0.63 0 0.39 -0.68 2 -1.46 3.66 -1.76 3.47 -6.59 8.25 -10.25 10.11 -5.22 2.64 -12.84 3.42 -18.46 1.90z m16.02 -30.37 c0 -1.61 -2.20 -5.22 -3.81 -6.30 -3.52 -2.29 -9.67 -1.71 -12.45 1.22 -1.22 1.27 -2.78 4.35 -2.78 5.47 0 0.29 3.32 0.49 9.52 0.49 8.84 0 9.52 -0.05 9.52 -0.88z"/>
    <!-- d -->
    <path d="M275.49 280.86 c-5.32 -1.90 -10.30 -6.40 -13.04 -11.82 -1.81 -3.56 -2.69 -7.76 -2.69 -12.79 0 -8.40 2.15 -13.82 7.81 -19.48 4.20 -4.20 6.79 -5.47 12.30 -6.05 6.20 -0.63 12.11 1.66 15.38 6.01 l1.61 2.15 0 -11.77 0 -11.77 7.57 0 7.57 0 0.05 16.50 c0.05 9.03 0.15 23.78 0.24 32.71 l0.15 16.21 -7.76 0 -7.81 0 0 -2.93 c0 -1.61 -0.20 -2.93 -0.39 -2.93 -0.20 0 -1.22 0.83 -2.25 1.90 -1.03 1.03 -3.08 2.49 -4.59 3.27 -3.61 1.81 -10.16 2.20 -14.16 0.78z m14.45 -13.09 c5.42 -2.25 8.25 -9.28 6.45 -15.87 -2.10 -7.62 -11.23 -10.69 -16.89 -5.71 -2.44 2.15 -3.71 4.93 -4 8.79 -0.29 4.44 0.54 7.28 3.03 9.96 3.08 3.37 7.52 4.49 11.43 2.83z"/>
    <!-- a -->
    <path d="M362.01 280.86 c-9.72 -3.47 -15.33 -12.40 -15.38 -24.51 -0.10 -10.64 4.88 -19.97 12.60 -23.78 2.49 -1.22 3.47 -1.37 8.20 -1.51 2.93 -0.10 6.10 0.05 7.08 0.34 2.29 0.68 6.05 3.37 7.57 5.42 l1.17 1.61 0.15 -3.56 0.15 -3.52 7.32 -0.10 7.32 -0.05 0.15 24.80 0.10 24.76 -7.57 0 -7.57 0 0 -2.93 c0 -1.61 -0.15 -2.93 -0.34 -2.93 -0.24 0 -0.98 0.73 -1.71 1.66 -0.78 0.98 -2.78 2.39 -4.59 3.27 -2.83 1.42 -3.86 1.66 -7.71 1.76 -3.37 0.15 -5.03 -0.05 -6.93 -0.73z m16.50 -14.06 c3.22 -2.25 4.49 -5.22 4.49 -10.45 0 -3.76 -0.15 -4.64 -1.42 -7.13 -1.27 -2.44 -1.86 -3.08 -4.15 -4.25 -2.25 -1.17 -3.13 -1.37 -5.37 -1.17 -5.18 0.44 -8.74 4 -9.81 9.86 -1.03 5.52 1.56 11.47 5.91 13.82 3.13 1.66 7.42 1.37 10.35 -0.68z"/>
    <!-- i (first) -->
    <path d="M237.01 280.81 c-0.10 -0.10 -0.20 -11.28 -0.20 -24.80 l0 -24.56 7.57 0 7.57 0 0 24.61 0 24.66 -7.37 0.15 c-4.05 0.10 -7.47 0.05 -7.57 -0.05z"/>
    <!-- i (second) -->
    <path d="M322.95 280.81 c-0.10 -0.10 -0.20 -11.28 -0.20 -24.80 l0 -24.56 7.57 0 7.57 0 0 24.61 0 24.66 -7.37 0.15 c-4.05 0.10 -7.47 0.05 -7.57 -0.05z"/>
    <!-- r -->
    <path d="M198.73 256.01 l0 -24.80 7.57 0.15 7.57 0.15 0 3.96 0 3.91 2.15 -2.39 c2.73 -3.03 6.98 -5.32 10.45 -5.62 l2.54 -0.24 0 7.67 0 7.67 -3.91 0.29 c-5.96 0.49 -9.52 2.83 -10.74 7.08 -0.24 1.03 -0.49 7.23 -0.49 14.40 l0 12.55 -7.57 0 -7.57 0 0 -24.76z"/>
    <!-- n -->
    <path d="M410.06 272.85 c-0.10 -4.39 -0.10 -15.48 0 -24.66 l0.15 -16.75 7.28 0 7.32 0 0 3.17 c0 1.76 0.05 3.17 0.15 3.17 0.10 0 1.22 -1.03 2.54 -2.25 3.76 -3.61 5.81 -4.35 12.45 -4.35 5.22 0 5.81 0.10 8.45 1.42 3.61 1.86 6.84 5.32 8.79 9.47 l1.56 3.27 0.15 17.72 0.15 17.68 -7.57 0 -7.62 0 0 -14.89 c0 -15.97 -0.15 -17.09 -2.59 -19.68 -1.76 -1.86 -3.52 -2.54 -6.79 -2.54 -3.66 0 -5.62 0.98 -7.47 3.81 -1.81 2.78 -2.20 6.20 -2.20 20.51 l0 12.79 -7.32 0 -7.28 0 -0.15 -7.91z"/>
    <!-- M Left wave -->
    <path d="M46.04 278.81 c-3.22 -1.66 -6.98 -7.52 -6.98 -10.94 0 -1.95 2.10 -6.88 4.64 -10.79 l1.71 -2.73 2.78 0.15 c2.54 0.15 2.88 0.29 3.91 1.76 0.59 0.88 1.51 2.98 2.05 4.64 0.59 1.66 1.56 3.71 2.20 4.49 1.03 1.27 1.46 1.46 3.42 1.37 l2.20 -0.05 -1.17 2.69 c-1.56 3.52 -4.54 7.91 -6.20 9.08 -2 1.46 -6.01 1.61 -8.54 0.34z"/>
    <!-- M Middle wave -->
    <path d="M84.33 278.81 c-2.69 -1.46 -4.20 -4.15 -13.82 -24.27 -4.74 -9.86 -9.03 -18.55 -9.52 -19.29 -1.17 -1.66 -2.98 -2.20 -4.69 -1.42 -0.68 0.34 -1.37 0.49 -1.46 0.34 -0.29 -0.29 3.13 -6.93 4.83 -9.47 2.10 -3.08 3.91 -4 7.62 -4 5.42 0 6.69 1.42 12.40 13.43 9.23 19.43 14.70 30.37 15.63 31.35 0.59 0.63 1.90 1.27 2.93 1.42 1.03 0.20 1.86 0.59 1.86 0.88 0 1.27 -4.83 8.89 -6.49 10.25 -2.39 1.95 -6.49 2.29 -9.28 0.78z"/>
    <!-- M Right wave -->
    <path d="M119.38 279 c-0.78 -0.39 -1.86 -1.12 -2.34 -1.56 -0.93 -0.83 -9.96 -18.75 -16.89 -33.40 -2.25 -4.74 -4.49 -9.08 -5.03 -9.62 -1.07 -1.22 -3.17 -1.32 -4.69 -0.24 -0.59 0.39 -1.07 0.63 -1.07 0.44 0 -0.54 4.59 -8.84 5.76 -10.40 1.86 -2.54 3.81 -3.52 7.08 -3.52 5.08 0 6.49 1.37 10.79 10.25 1.46 3.08 5.66 11.87 9.33 19.53 3.66 7.67 7.13 14.40 7.67 15.04 0.73 0.73 1.61 1.07 2.93 1.07 1.03 0 1.86 0.10 1.86 0.24 0 0.54 -4.35 9.33 -4.98 10.06 -2.20 2.69 -7.28 3.71 -10.40 2.10z"/>
    <!-- Dot first i -->
    <path d="M239.99 225.39 c-6.01 -2.78 -6.15 -11.33 -0.24 -14.31 6.59 -3.37 14.11 1.03 13.53 7.81 -0.20 2.49 -1.27 4.30 -3.47 5.91 -1.66 1.27 -7.57 1.61 -9.81 0.59z"/>
    <!-- Dot second i -->
    <path d="M325.68 225.15 c-4.83 -2.59 -5.52 -8.79 -1.46 -12.84 l1.86 -1.86 4.39 0 c4.05 0 4.54 0.10 5.96 1.27 2.10 1.81 2.93 3.66 2.93 6.64 0 3.13 -1.51 5.71 -4.05 6.93 -2.39 1.07 -7.42 1.03 -9.62 -0.15z"/>
  </g>
</svg>
